<?xml version="1.0" encoding="utf-8"?>
<!-- Generator: Adobe Illustrator 19.2.1, SVG Export Plug-In . SVG Version: 6.00 Build 0)  -->
<svg version="1.1" id="Layer_1" xmlns="http://www.w3.org/2000/svg" xmlns:xlink="http://www.w3.org/1999/xlink" x="0px" y="0px"
	 viewBox="0 0 60 60" style="enable-background:new 0 0 60 60;" xml:space="preserve">
<style type="text/css">
	.st0{fill:#0379C4;}
</style>
<g>
	<path class="st0" d="M39.9,27.3L27.8,47.6h-2.2l2.2-13.2l-6.7,0h-0.1c-0.6,0-1.1-0.5-1.1-1.1c0-0.3,0.2-0.7,0.2-0.7l12.1-20.2
		l2.2,0l-2.2,13.2l6.8,0l0.1,0c0.6,0,1.1,0.5,1.1,1.1C40.2,26.9,40.1,27.2,39.9,27.3L39.9,27.3z M30,1C14,1,1,14,1,30
		c0,16,13,29,29,29c16,0,29-13,29-29C59,14,46,1,30,1z"/>
</g>
</svg>
