<?xml version="1.0" encoding="UTF-8" standalone="no"?>
<!-- Created with Inkscape (http://www.inkscape.org/) -->

<svg
   xmlns:dc="http://purl.org/dc/elements/1.1/"
   xmlns:cc="http://creativecommons.org/ns#"
   xmlns:rdf="http://www.w3.org/1999/02/22-rdf-syntax-ns#"
   xmlns:svg="http://www.w3.org/2000/svg"
   xmlns="http://www.w3.org/2000/svg"
   xmlns:sodipodi="http://sodipodi.sourceforge.net/DTD/sodipodi-0.dtd"
   xmlns:inkscape="http://www.inkscape.org/namespaces/inkscape"
   width="114.52686mm"
   height="114.52634mm"
   viewBox="0 0 114.52686 114.52634"
   version="1.1"
   id="svg8"
   inkscape:version="0.92.2 2405546, 2018-03-11"
   sodipodi:docname="fn.lc.svg">
  <defs
     id="defs2" />
  <sodipodi:namedview
     id="base"
     pagecolor="#ffffff"
     bordercolor="#666666"
     borderopacity="1.0"
     inkscape:pageopacity="0.0"
     inkscape:pageshadow="2"
     inkscape:zoom="1.4"
     inkscape:cx="165.81768"
     inkscape:cy="178.59158"
     inkscape:document-units="mm"
     inkscape:current-layer="layer1"
     showgrid="false"
     inkscape:window-width="3000"
     inkscape:window-height="1963"
     inkscape:window-x="0"
     inkscape:window-y="0"
     inkscape:window-maximized="0" />
  <metadata
     id="metadata5">
    <rdf:RDF>
      <cc:Work
         rdf:about="">
        <dc:format>image/svg+xml</dc:format>
        <dc:type
           rdf:resource="http://purl.org/dc/dcmitype/StillImage" />
        <dc:title></dc:title>
      </cc:Work>
    </rdf:RDF>
  </metadata>
  <g
     inkscape:label="Layer 1"
     inkscape:groupmode="layer"
     id="layer1"
     transform="translate(-47.736622,-91.236807)">
    <path
       style="fill:#039be5;fill-opacity:1;stroke-width:0.99999994"
       d="M 396.84961,344.83203 A 216.42857,216.42857 0 0 0 180.42188,561.25977 216.42857,216.42857 0 0 0 396.84961,777.6875 216.42857,216.42857 0 0 0 613.2793,561.25977 216.42857,216.42857 0 0 0 396.84961,344.83203 Z M 255.95117,474.16602 c 2.125,0 4.25,0.1875 6.375,0.5625 2.1875,0.3125 4.59375,0.78125 7.21875,1.40625 l -2.25,14.0625 c -1.125,-0.25 -2.5,-0.46875 -4.125,-0.65625 -1.5625,-0.1875 -3.1875,-0.28125 -4.875,-0.28125 -5.4375,0 -9.46875,1.625 -12.09375,4.875 -2.625,3.1875 -3.9375,7.84375 -3.9375,13.96875 v 12.84375 h 21.1875 v 13.6875 h -21.1875 v 73.3125 l 15.28125,2.625 v 11.8125 h -49.03125 v -11.8125 l 15.28125,-2.625 v -73.3125 h -15.84375 v -13.6875 h 15.84375 v -12.84375 c 0,-10.8125 2.8125,-19.15625 8.4375,-25.03125 5.6875,-5.9375 13.59375,-8.90625 23.71875,-8.90625 z m 189.375,1.96875 h 33.75 v 131.8125 l 15.28125,2.625 v 11.8125 h -49.03125 v -11.8125 l 15.28125,-2.625 V 490.66602 l -15.28125,-2.625 z m -106.875,42.9375 c 10.9375,0 19.40625,3.21875 25.40625,9.65625 6,6.375 9,16.25 9,29.625 v 49.59375 l 15.28125,2.625 v 11.8125 h -49.03125 v -11.8125 l 15.28125,-2.625 v -49.21875 c 0,-8.9375 -1.78125,-15.28125 -5.34375,-19.03125 -3.5,-3.75 -8.875,-5.625 -16.125,-5.625 -5.3125,0 -10.03125,1.28125 -14.15625,3.84375 -4.0625,2.5625 -7.3125,6.0625 -9.75,10.5 v 59.53125 l 15.28125,2.625 v 11.8125 h -49.03125 v -11.8125 l 15.28125,-2.625 v -72.46875 l -15.28125,-2.625 v -11.90625 h 31.78125 l 1.3125,15.09375 c 3.375,-5.375 7.59375,-9.53125 12.65625,-12.46875 5.125,-3 10.9375,-4.5 17.4375,-4.5 z m 215.34375,0 c 8.125,0 15.40625,1.34375 21.84375,4.03125 6.5,2.6875 11.875,6.375 16.125,11.0625 l 0.84375,22.5 h -14.71875 l -4.03125,-15.9375 c -2.1875,-2.125 -5,-3.84375 -8.4375,-5.15625 -3.4375,-1.3125 -7.3125,-1.96875 -11.625,-1.96875 -9.6875,0 -16.625,3.5 -20.8125,10.5 -4.125,6.9375 -6.1875,15.46875 -6.1875,25.59375 v 3.9375 c 0,10.375 2.0625,19.03125 6.1875,25.96875 4.125,6.875 11.0625,10.3125 20.8125,10.3125 6.125,0 11.5,-1.875 16.125,-5.625 4.6875,-3.8125 7.03125,-8.46875 7.03125,-13.96875 h 16.59375 l 0.1875,0.5625 c 0.3125,8.75 -3.59375,16.53125 -11.71875,23.34375 -8.0625,6.75 -17.46875,10.125 -28.21875,10.125 -14.75,0 -26.03125,-4.8125 -33.84375,-14.4375 -7.75,-9.625 -11.625,-21.71875 -11.625,-36.28125 v -3.9375 c 0,-14.4375 3.90625,-26.46875 11.71875,-36.09375 7.8125,-9.6875 19.0625,-14.53125 33.75,-14.53125 z m -146.8125,84.375 h 18.46875 v 18.9375 h -18.46875 z"
       transform="scale(0.26458333)"
       id="path10"
       inkscape:connector-curvature="0" />
    <flowRoot
       xml:space="preserve"
       id="flowRoot817"
       style="font-style:normal;font-weight:normal;font-size:40px;line-height:1.25;font-family:sans-serif;letter-spacing:0px;word-spacing:0px;fill:#000000;fill-opacity:1;stroke:none"
       transform="matrix(0.26458333,0,0,0.26458333,30.405224,85.531688)"><flowRegion
         id="flowRegion819"><rect
           id="rect821"
           width="367.14285"
           height="194.28572"
           x="115.71429"
           y="151.8054" /></flowRegion><flowPara
         id="flowPara823"
         style="font-style:normal;font-variant:normal;font-weight:normal;font-stretch:normal;font-size:173.33332825px;font-family:'Roboto Slab';-inkscape-font-specification:'Roboto Slab'">fn.lc</flowPara></flowRoot>  </g>
</svg>
